<?xml version="1.0" encoding="utf-8"?>
<!-- Generator: Adobe Illustrator 16.0.0, SVG Export Plug-In . SVG Version: 6.00 Build 0)  -->
<!DOCTYPE svg PUBLIC "-//W3C//DTD SVG 1.1//EN" "http://www.w3.org/Graphics/SVG/1.1/DTD/svg11.dtd">
<svg version="1.1" id="Layer_1" xmlns="http://www.w3.org/2000/svg" xmlns:xlink="http://www.w3.org/1999/xlink" x="0px" y="0px"
	 width="270.516px" height="45.016px" viewBox="0 0 270.516 45.016" enable-background="new 0 0 270.516 45.016"
	 xml:space="preserve">
<g id="Black">
</g>
<g id="White">
	<rect x="15.257" y="0" fill="#646A6F" stroke="#646A6F" stroke-miterlimit="10" width="6.432" height="6.431"/>
	<rect x="21.688" y="0" fill="#646A6F" stroke="#646A6F" stroke-miterlimit="10" width="6.431" height="6.431"/>
	<rect x="28.118" y="0" fill="#646A6F" stroke="#646A6F" stroke-miterlimit="10" width="6.431" height="6.431"/>
	<rect x="34.549" y="0" fill="#646A6F" stroke="#646A6F" stroke-miterlimit="10" width="6.432" height="6.431"/>
	<rect x="40.98" y="0" fill="#646A6F" stroke="#646A6F" stroke-miterlimit="10" width="6.431" height="6.431"/>
	<rect x="15.257" y="6.431" fill="#646A6F" stroke="#646A6F" stroke-miterlimit="10" width="6.432" height="6.431"/>
	<rect x="2.395" y="12.862" fill="#646A6F" stroke="#646A6F" stroke-miterlimit="10" width="6.431" height="6.432"/>
	<rect x="8.825" y="12.862" fill="#646A6F" stroke="#646A6F" stroke-miterlimit="10" width="6.432" height="6.432"/>
	<rect x="15.257" y="12.862" fill="#646A6F" stroke="#646A6F" stroke-miterlimit="10" width="6.432" height="6.432"/>
	<rect x="2.395" y="19.292" fill="#646A6F" stroke="#646A6F" stroke-miterlimit="10" width="6.431" height="6.431"/>
	<rect x="21.688" y="19.292" fill="#646A6F" stroke="#646A6F" stroke-miterlimit="10" width="6.431" height="6.431"/>
	<rect x="28.118" y="19.292" fill="#646A6F" stroke="#646A6F" stroke-miterlimit="10" width="6.431" height="6.431"/>
	<rect x="34.549" y="19.292" fill="#646A6F" stroke="#646A6F" stroke-miterlimit="10" width="6.432" height="6.431"/>
	<rect x="40.98" y="19.292" fill="#646A6F" stroke="#646A6F" stroke-miterlimit="10" width="6.431" height="6.431"/>
	<rect x="2.395" y="25.724" fill="#646A6F" stroke="#646A6F" stroke-miterlimit="10" width="6.431" height="6.432"/>
	<rect x="21.688" y="25.724" fill="#646A6F" stroke="#646A6F" stroke-miterlimit="10" width="6.431" height="6.432"/>
	<rect x="2.395" y="32.156" fill="#646A6F" stroke="#646A6F" stroke-miterlimit="10" width="6.431" height="6.431"/>
	<rect x="21.688" y="32.156" fill="#646A6F" stroke="#646A6F" stroke-miterlimit="10" width="6.431" height="6.431"/>
	<rect x="2.395" y="38.585" fill="#646A6F" stroke="#646A6F" stroke-miterlimit="10" width="6.431" height="6.431"/>
	<rect x="21.688" y="38.585" fill="#646A6F" stroke="#646A6F" stroke-miterlimit="10" width="6.431" height="6.431"/>
	<rect x="28.118" y="38.585" fill="#646A6F" stroke="#646A6F" stroke-miterlimit="10" width="6.431" height="6.431"/>
	<rect x="34.549" y="38.585" fill="#646A6F" stroke="#646A6F" stroke-miterlimit="10" width="6.432" height="6.431"/>
	<rect x="40.98" y="38.585" fill="#646A6F" stroke="#646A6F" stroke-miterlimit="10" width="6.431" height="6.431"/>
	<rect x="191.22" y="6.431" fill="#646A6F" stroke="#646A6F" stroke-miterlimit="10" width="6.431" height="6.431"/>
	<rect x="191.22" y="12.862" fill="#646A6F" stroke="#646A6F" stroke-miterlimit="10" width="6.431" height="6.432"/>
	<rect x="197.651" y="12.862" fill="#646A6F" stroke="#646A6F" stroke-miterlimit="10" width="6.431" height="6.432"/>
	<rect x="204.082" y="12.862" fill="#646A6F" stroke="#646A6F" stroke-miterlimit="10" width="6.432" height="6.432"/>
	<rect x="204.082" y="25.724" fill="#646A6F" stroke="#646A6F" stroke-miterlimit="10" width="6.432" height="6.432"/>
	<rect x="204.082" y="32.156" fill="#646A6F" stroke="#646A6F" stroke-miterlimit="10" width="6.432" height="6.431"/>
	<rect x="171.927" y="38.585" fill="#646A6F" stroke="#646A6F" stroke-miterlimit="10" width="6.432" height="6.431"/>
	<rect x="178.358" y="38.585" fill="#646A6F" stroke="#646A6F" stroke-miterlimit="10" width="6.431" height="6.431"/>
	<rect x="165.496" y="19.292" fill="#646A6F" stroke="#646A6F" stroke-miterlimit="10" width="6.431" height="6.431"/>
	<rect x="204.082" y="19.292" fill="#646A6F" stroke="#646A6F" stroke-miterlimit="10" width="6.432" height="6.431"/>
	<rect x="165.496" y="25.724" fill="#646A6F" stroke="#646A6F" stroke-miterlimit="10" width="6.431" height="6.432"/>
	<rect x="165.496" y="32.156" fill="#646A6F" stroke="#646A6F" stroke-miterlimit="10" width="6.431" height="6.431"/>
	<rect x="165.496" y="38.585" fill="#646A6F" stroke="#646A6F" stroke-miterlimit="10" width="6.431" height="6.431"/>
	<rect x="184.789" y="38.585" fill="#646A6F" stroke="#646A6F" stroke-miterlimit="10" width="6.432" height="6.431"/>
	<rect x="204.082" y="38.585" fill="#646A6F" stroke="#646A6F" stroke-miterlimit="10" width="6.432" height="6.431"/>
	<rect x="165.496" y="0" fill="#646A6F" stroke="#646A6F" stroke-miterlimit="10" width="6.431" height="6.431"/>
	<rect x="171.927" y="0" fill="#646A6F" stroke="#646A6F" stroke-miterlimit="10" width="6.432" height="6.431"/>
	<rect x="178.358" y="0" fill="#646A6F" stroke="#646A6F" stroke-miterlimit="10" width="6.431" height="6.431"/>
	<rect x="184.789" y="0" fill="#646A6F" stroke="#646A6F" stroke-miterlimit="10" width="6.432" height="6.431"/>
	<rect x="191.22" y="0" fill="#646A6F" stroke="#646A6F" stroke-miterlimit="10" width="6.431" height="6.431"/>
	<text transform="matrix(1 0 0 1 56.675 28.9397)" fill="#646A6F" font-family="'Helvetica'" font-size="18.5943">macro</text>
	<text transform="matrix(1 0 0 1 56.675 42.886)" fill="#646A6F" font-family="'Helvetica'" font-size="18.5943">connections</text>
	<g>
		<text transform="matrix(1 0 0 1 218.0798 16.0774)" fill="#646A6F" font-family="'Helvetica'" font-size="18.5943">mit</text>
		<text transform="matrix(1 0 0 1 218.0798 30.0237)" fill="#646A6F" font-family="'Helvetica'" font-size="18.5943">media</text>
		<text transform="matrix(1 0 0 1 218.0798 43.969)" fill="#646A6F" font-family="'Helvetica'" font-size="18.5943">lab</text>
	</g>
</g>
</svg>
