<?xml version="1.0" encoding="utf-8"?>
<!-- Generator: Adobe Illustrator 18.0.0, SVG Export Plug-In . SVG Version: 6.00 Build 0)  -->
<!DOCTYPE svg PUBLIC "-//W3C//DTD SVG 1.1//EN" "http://www.w3.org/Graphics/SVG/1.1/DTD/svg11.dtd">
<svg version="1.1" xmlns="http://www.w3.org/2000/svg" xmlns:xlink="http://www.w3.org/1999/xlink" x="0px" y="0px"
	 viewBox="0 0 370.4 199.8" enable-background="new 0 0 370.4 199.8" xml:space="preserve">
<g id="Layer_1">
	<path d="M170.5,199v-85.3H85.3V28.4H0V0h113.7v85.3H199V199H170.5z M0,85.3V199h113.7v-28.4H28.4V85.3H0z M227.4,112.1h8.5v-15
		c0-1.6,0.4-2.9,1.1-3.9c0.8-1,1.8-1.5,3.1-1.5c1.3,0,2.2,0.4,2.9,1.2c0.6,0.8,0.9,1.9,0.9,3.4v15.9h8.5v-15c0-1.6,0.4-2.9,1.1-3.9
		c0.7-1,1.8-1.5,3.1-1.5c1.3,0,2.2,0.4,2.9,1.2c0.6,0.8,0.9,1.9,0.9,3.4v15.9h8.5V94.7c0-1.5-0.2-2.9-0.6-4.1
		c-0.4-1.3-1-2.3-1.7-3.2c-0.8-0.9-1.7-1.6-2.9-2.1c-1.2-0.5-2.5-0.7-4-0.7c-1.7,0-3.3,0.4-4.7,1.1c-1.4,0.8-2.6,1.9-3.7,3.6h-0.1
		c-0.7-1.5-1.7-2.6-3-3.5c-1.3-0.8-2.8-1.3-4.6-1.3c-2,0-3.6,0.4-4.9,1.3c-1.3,0.8-2.4,2-3.2,3.4h-0.2v-3.8h-8.2V112.1z M272.8,81.6
		h8.5v-6.9h-8.5V81.6z M272.8,112.1h8.5V85.3h-8.5V112.1z M299.1,112.3c0.8-0.1,1.4-0.2,1.8-0.3v-6.2c-0.2,0-0.4,0-0.8,0
		c-0.3,0-0.7,0-1.1,0c-0.9,0-1.6-0.2-2.2-0.5c-0.5-0.3-0.8-1.1-0.8-2.1V90.6h4.9v-5.3H296v-8.5h-8.3v8.5h-3.6v5.3h3.6V105
		c0,1.4,0.2,2.6,0.6,3.6c0.4,1,1,1.7,1.8,2.3c0.8,0.6,1.7,1,2.7,1.2c1,0.2,2.2,0.3,3.4,0.3C297.4,112.4,298.3,112.4,299.1,112.3z
		 M227.4,152.8h8.5v-15c0-1.6,0.4-2.9,1.1-3.9c0.8-1,1.8-1.5,3.1-1.5c1.3,0,2.2,0.4,2.9,1.2c0.6,0.8,0.9,1.9,0.9,3.4v15.9h8.5v-15
		c0-1.6,0.4-2.9,1.1-3.9c0.7-1,1.8-1.5,3.1-1.5c1.3,0,2.2,0.4,2.9,1.2c0.6,0.8,0.9,1.9,0.9,3.4v15.9h8.5v-17.5
		c0-1.5-0.2-2.9-0.6-4.1c-0.4-1.3-1-2.3-1.7-3.2c-0.8-0.9-1.7-1.6-2.9-2.1c-1.2-0.5-2.5-0.7-4-0.7c-1.7,0-3.3,0.4-4.7,1.1
		c-1.4,0.7-2.6,1.9-3.7,3.6h-0.1c-0.7-1.5-1.7-2.6-3-3.5c-1.3-0.8-2.8-1.3-4.6-1.3c-2,0-3.6,0.4-4.9,1.3c-1.3,0.8-2.4,2-3.2,3.4
		h-0.2V126h-8.2V152.8z M290.4,152.9c1.4-0.4,2.6-1,3.7-1.8c1.2-0.8,2.2-1.8,2.9-2.9c0.8-1.1,1.3-2.3,1.6-3.5h-8.3
		c-0.4,0.8-0.9,1.5-1.7,2c-0.7,0.5-1.7,0.7-2.8,0.7c-1.8,0-3.2-0.5-4.1-1.6c-1-1-1.6-2.5-1.9-4.3h19.3c0-2.7-0.3-5.2-1.1-7.5
		c-0.8-2.3-2-4.1-3.6-5.6c-1.2-1.1-2.5-1.9-4-2.5c-1.5-0.6-3.2-0.9-5.2-0.9c-2.1,0-3.9,0.4-5.6,1.1c-1.7,0.7-3.1,1.7-4.4,3
		c-1.2,1.3-2.2,2.8-2.8,4.5c-0.7,1.7-1,3.6-1,5.6c0,2,0.3,3.9,1,5.7c0.7,1.8,1.6,3.3,2.8,4.5c1.2,1.3,2.7,2.3,4.5,3
		c1.8,0.7,3.8,1.1,6,1.1C287.5,153.6,289,153.4,290.4,152.9z M279.9,136.5c0.3-1.6,0.9-2.9,1.7-3.8c0.9-0.9,2.1-1.4,3.8-1.4
		c1.4,0,2.5,0.5,3.5,1.4c0.9,0.9,1.4,2.2,1.6,3.8H279.9z M317.7,152.4c1.3-0.8,2.4-1.9,3.2-3.3h0.1v3.6h8.2v-37.5h-8.5V129h-0.2
		c-0.8-1.1-1.8-2-2.9-2.7c-1.2-0.7-2.7-1.1-4.6-1.1c-1.8,0-3.3,0.4-4.8,1.1c-1.4,0.7-2.7,1.7-3.7,2.9c-1,1.2-1.8,2.7-2.4,4.5
		c-0.6,1.8-0.9,3.7-0.9,5.8c0,2.2,0.3,4.2,0.9,6c0.6,1.8,1.4,3.3,2.4,4.5c1,1.2,2.3,2.2,3.7,2.8c1.4,0.6,3,1,4.7,1
		C314.8,153.6,316.3,153.2,317.7,152.4z M311.3,144.8c-0.9-1.4-1.4-3.2-1.4-5.6c0-2.3,0.5-4.1,1.4-5.5c0.9-1.4,2.3-2.1,4-2.1
		c0.9,0,1.8,0.2,2.4,0.6c0.7,0.4,1.3,0.9,1.7,1.6c0.5,0.7,0.8,1.5,1,2.5c0.2,1,0.3,2,0.3,3.1c0,2.2-0.5,4-1.5,5.4
		c-1,1.4-2.4,2.1-4.2,2.1C313.5,146.9,312.2,146.2,311.3,144.8z M332.6,122.2h8.5v-6.9h-8.5V122.2z M332.6,152.8h8.5V126h-8.5V152.8
		z M358.1,152.5c1.2-0.7,2.3-1.6,3.1-2.7h0.1c0.1,0.7,0.2,1.3,0.4,1.8c0.1,0.5,0.3,0.9,0.5,1.2h8.3v-0.4c-0.4-0.2-0.6-0.7-0.8-1.3
		c-0.1-0.6-0.2-1.5-0.2-2.5v-13.5c0-1.7-0.3-3.2-0.8-4.5c-0.6-1.3-1.4-2.4-2.6-3.2c-1-0.7-2.2-1.3-3.6-1.7c-1.4-0.4-3.1-0.5-5.1-0.5
		c-2,0-3.8,0.2-5.3,0.7c-1.5,0.5-2.8,1.1-3.8,2c-1,0.8-1.8,1.8-2.3,2.9c-0.5,1.1-0.8,2.3-0.8,3.6h7.9c0.1-1.1,0.6-2,1.3-2.6
		c0.7-0.6,1.7-0.9,3.1-0.9c1.3,0,2.2,0.3,2.8,0.8c0.6,0.5,0.9,1.2,0.9,2.1c0,0.9-0.5,1.6-1.5,1.9c-1,0.4-2.8,0.7-5.3,1
		c-1.4,0.2-2.7,0.4-4,0.8c-1.2,0.3-2.3,0.8-3.3,1.5c-0.9,0.6-1.7,1.5-2.2,2.5c-0.5,1-0.8,2.2-0.8,3.7c0,1.3,0.2,2.5,0.7,3.5
		c0.5,1,1.1,1.9,1.9,2.6c0.8,0.7,1.8,1.2,2.9,1.6c1.1,0.4,2.4,0.5,3.7,0.5C355.2,153.5,356.9,153.1,358.1,152.5z M353.3,147.3
		c-0.7-0.5-1-1.2-1-2.3c0-1,0.4-1.8,1.1-2.3c0.7-0.5,1.9-0.9,3.6-1.3c0.9-0.2,1.7-0.4,2.4-0.6c0.8-0.2,1.4-0.5,2-0.8v3.2
		c0,1.5-0.5,2.6-1.5,3.5c-1,0.9-2.3,1.3-3.9,1.3C354.9,148,354,147.8,353.3,147.3z M227.4,199h8.6v-37.5h-8.6V199z M253.1,198.7
		c1.2-0.7,2.3-1.5,3.1-2.7h0.1c0.1,0.7,0.2,1.3,0.4,1.8c0.1,0.5,0.3,0.9,0.5,1.2h8.3v-0.4c-0.4-0.2-0.6-0.7-0.8-1.3
		c-0.1-0.6-0.2-1.5-0.2-2.5v-13.5c0-1.7-0.3-3.2-0.8-4.5c-0.6-1.3-1.4-2.4-2.6-3.2c-1-0.7-2.2-1.3-3.6-1.6c-1.4-0.4-3.1-0.6-5.1-0.6
		c-2,0-3.8,0.2-5.3,0.7c-1.5,0.5-2.8,1.1-3.7,2c-1,0.8-1.8,1.8-2.3,2.9c-0.5,1.1-0.8,2.3-0.8,3.6h7.9c0.1-1.1,0.6-2,1.3-2.6
		c0.7-0.6,1.7-0.9,3.1-0.9c1.3,0,2.2,0.3,2.8,0.8c0.6,0.5,0.9,1.2,0.9,2.1c0,0.9-0.5,1.6-1.5,1.9c-1,0.4-2.8,0.7-5.3,1
		c-1.4,0.2-2.7,0.4-4,0.8c-1.2,0.3-2.3,0.8-3.3,1.5c-0.9,0.6-1.7,1.5-2.2,2.5c-0.5,1-0.8,2.2-0.8,3.7c0,1.3,0.2,2.5,0.7,3.5
		c0.5,1,1.1,1.9,1.9,2.6c0.8,0.7,1.8,1.2,2.9,1.6c1.1,0.3,2.4,0.5,3.7,0.5C250.2,199.7,251.8,199.3,253.1,198.7z M248.3,193.5
		c-0.7-0.5-1.1-1.2-1.1-2.3c0-1,0.4-1.8,1.1-2.3c0.7-0.5,1.9-1,3.6-1.3c0.9-0.2,1.7-0.4,2.4-0.7c0.8-0.2,1.4-0.5,2-0.8v3.2
		c0,1.5-0.5,2.6-1.5,3.5c-1,0.9-2.3,1.3-3.9,1.3C249.8,194.2,249,194,248.3,193.5z M289.4,198.8c1.4-0.6,2.6-1.6,3.6-2.8
		c1-1.2,1.8-2.7,2.3-4.5c0.5-1.8,0.8-3.8,0.8-6c0-2-0.3-3.9-0.8-5.6c-0.5-1.7-1.3-3.2-2.3-4.5c-1-1.3-2.2-2.3-3.6-3
		c-1.4-0.7-3-1.1-4.7-1.1c-1.8,0-3.4,0.4-4.6,1c-1.2,0.7-2.2,1.6-3.1,2.8h-0.2v-13.7h-8.5V199h8.2v-3.4h0.1c0.8,1.4,2,2.5,3.4,3.2
		c1.4,0.7,3,1.1,4.8,1.1C286.4,199.8,288,199.5,289.4,198.8z M278.1,191c-1-1.4-1.5-3.2-1.5-5.4c0-2.2,0.5-4,1.4-5.5
		c0.9-1.5,2.3-2.2,4.2-2.2c1.7,0,3.1,0.7,4,2.1c0.9,1.4,1.3,3.2,1.3,5.6c0,2.3-0.4,4.2-1.3,5.5c-0.9,1.3-2.2,2-3.9,2
		C280.5,193.1,279.1,192.4,278.1,191z"/>
</g>
<g id="Layer_2">
</g>
</svg>
