<?xml version="1.0" encoding="UTF-8" standalone="no"?>
<svg
   xmlns:dc="http://purl.org/dc/elements/1.1/"
   xmlns:cc="http://creativecommons.org/ns#"
   xmlns:rdf="http://www.w3.org/1999/02/22-rdf-syntax-ns#"
   xmlns:svg="http://www.w3.org/2000/svg"
   xmlns="http://www.w3.org/2000/svg"
   viewBox="0 0 94.673874 89.731125"
   height="89.731125"
   width="94.673874"
   xml:space="preserve"
   version="1.1"
   id="svg2"><metadata
     id="metadata8"><rdf:RDF><cc:Work
         rdf:about=""><dc:format>image/svg+xml</dc:format><dc:type
           rdf:resource="http://purl.org/dc/dcmitype/StillImage" /></cc:Work></rdf:RDF></metadata><defs
     id="defs6"><clipPath
       id="clipPath16"
       clipPathUnits="userSpaceOnUse"><path
         id="path18"
         d="m 0,71.785 75.739,0 L 75.739,0 0,0 0,71.785 Z" /></clipPath></defs><g
     transform="matrix(1.25,0,0,-1.25,0,89.731125)"
     id="g10"><g
       id="g12"><g
         clip-path="url(#clipPath16)"
         id="g14"><g
           transform="translate(41.9136,23.7591)"
           id="g20"><path
             id="path22"
             style="fill:#293235;fill-opacity:1;fill-rule:nonzero;stroke:none"
             d="m 0,0 c 3.75,-0.577 11.192,4.343 14.301,7.868 1.532,1.736 1.55,-1.207 1.41,-2.2 -1.502,-10.638 -9.188,-19.866 -20.224,-22.8 -14.715,-3.912 -29.816,4.846 -33.728,19.561 -3.912,14.716 4.846,29.816 19.561,33.728 8.066,2.144 16.044,-2.45 24,-2.008 1.572,0.087 0.728,-3.679 1.547,-5.304 1.143,-2.268 3.746,-2.83 4.936,-4.74 C 12.536,22.93 4.926,11.523 -3.835,12.341 -10.269,12.943 -1.343,0.206 0,0" /></g><g
           transform="translate(63.1778,59.2447)"
           id="g24"><path
             id="path26"
             style="fill:#293235;fill-opacity:1;fill-rule:nonzero;stroke:none"
             d="m 0,0 c -0.846,0.555 -1.981,0.319 -2.536,-0.526 -0.555,-0.846 -0.319,-1.981 0.526,-2.536 3.587,-2.354 6.384,-5.814 8.091,-10.007 1.7,-4.178 2.115,-8.77 1.17,-12.931 -0.224,-0.987 0.394,-1.968 1.38,-2.192 0.38,-0.086 0.759,-0.048 1.095,0.089 0.535,0.218 0.959,0.685 1.097,1.291 1.126,4.957 0.659,10.186 -1.35,15.123 C 7.486,-6.805 4.21,-2.763 0,0" /></g><g
           transform="translate(59.5533,52.1834)"
           id="g28"><path
             id="path30"
             style="fill:#293235;fill-opacity:1;fill-rule:nonzero;stroke:none"
             d="m 0,0 c -0.846,0.555 -1.981,0.319 -2.536,-0.526 -0.555,-0.846 -0.319,-1.981 0.526,-2.536 2.083,-1.367 3.709,-3.38 4.703,-5.822 0.99,-2.433 1.233,-5.104 0.684,-7.52 -0.224,-0.986 0.394,-1.967 1.38,-2.192 0.38,-0.086 0.759,-0.047 1.095,0.089 0.535,0.218 0.959,0.685 1.097,1.291 0.724,3.187 0.425,6.545 -0.864,9.712 C 4.81,-4.371 2.706,-1.776 0,0" /></g></g></g></g></svg>