<?xml version="1.0" encoding="utf-8"?>
<!-- Generator: Adobe Illustrator 18.0.0, SVG Export Plug-In . SVG Version: 6.00 Build 0)  -->
<!DOCTYPE svg PUBLIC "-//W3C//DTD SVG 1.1//EN" "http://www.w3.org/Graphics/SVG/1.1/DTD/svg11.dtd">
<svg version="1.1" id="Layer_1" xmlns="http://www.w3.org/2000/svg" xmlns:xlink="http://www.w3.org/1999/xlink" x="0px" y="0px"
	 viewBox="0 0 200.1 57.5" enable-background="new 0 0 200.1 57.5" xml:space="preserve">
<g>
	
		<text transform="matrix(1 0 0 1 79.7647 46.2977)" fill="#293235" font-family="'HelveticaNeue-CondensedBold'" font-size="47.3374">Shout!</text>
</g>
<path fill="#293235" d="M40.6,38.2c3.8,0.6,11.2-4.3,14.3-7.9c1.5-1.7,1.6,1.2,1.4,2.2c-1.5,10.6-9.2,19.9-20.2,22.8
	C21.4,59.2,6.3,50.4,2.4,35.7S7.2,5.9,22,2C30-0.1,38,4.5,46,4c1.6-0.1,0.7,3.7,1.5,5.3c1.1,2.3,3.7,2.8,4.9,4.7
	c0.7,1.2-6.9,12.6-15.6,11.8C30.4,25.2,39.3,38,40.6,38.2z"/>
<g>
	<g>
		<path fill="#293235" d="M61.9,2.7c-0.8-0.6-2-0.3-2.5,0.5c-0.6,0.8-0.3,2,0.5,2.5c3.6,2.4,6.4,5.8,8.1,10
			c1.7,4.2,2.1,8.8,1.2,12.9c-0.2,1,0.4,2,1.4,2.2c0.4,0.1,0.8,0,1.1-0.1c0.5-0.2,1-0.7,1.1-1.3c1.1-5,0.7-10.2-1.3-15.1
			C69.4,9.5,66.1,5.4,61.9,2.7z"/>
		<path fill="#293235" d="M58.3,9.7c-0.8-0.6-2-0.3-2.5,0.5c-0.6,0.8-0.3,2,0.5,2.5c2.1,1.4,3.7,3.4,4.7,5.8c1,2.4,1.2,5.1,0.7,7.5
			c-0.2,1,0.4,2,1.4,2.2c0.4,0.1,0.8,0,1.1-0.1c0.5-0.2,1-0.7,1.1-1.3c0.7-3.2,0.4-6.5-0.9-9.7C63.1,14.1,61,11.5,58.3,9.7z"/>
	</g>
</g>
</svg>
