<?xml version="1.0" encoding="utf-8"?>
<!-- Generator: Adobe Illustrator 18.1.1, SVG Export Plug-In . SVG Version: 6.00 Build 0)  -->
<svg version="1.1" id="Layer_1" xmlns="http://www.w3.org/2000/svg" xmlns:xlink="http://www.w3.org/1999/xlink" x="0px" y="0px"
	 viewBox="0 0 960 560" enable-background="new 0 0 960 560" xml:space="preserve">
<g>
	
		<text transform="matrix(1 0 0 1 382.6788 364.1875)" fill="#FFFFFF" font-family="'HelveticaNeue-CondensedBold'" font-size="227.106">Shout!</text>
</g>
<path fill="#FFFFFF" d="M194.8,325.3c18.2,2.9,53.7-20.6,68.6-37.9c7.2-8.2,7.7,5.8,6.7,10.6c-7.2,50.9-44.1,95.5-96.9,109.4
	c-70.5,18.7-143-23.5-161.7-94s23-143,94-161.7c38.4-10.1,76.8,12,115.1,9.6c7.7-0.5,3.4,17.8,7.2,25.4c5.3,11,17.8,13.4,23.5,22.5
	c3.4,5.8-33.1,60.4-74.8,56.6C145.8,263,188.5,324.4,194.8,325.3z"/>
<g>
	<g>
		<path fill="#FFFFFF" d="M297,155c-3.8-2.9-9.6-1.4-12,2.4c-2.9,3.8-1.4,9.6,2.4,12c17.3,11.5,30.7,27.8,38.9,48
			s10.1,42.2,5.8,61.9c-1,4.8,1.9,9.6,6.7,10.6c1.9,0.5,3.8,0,5.3-0.5c2.4-1,4.8-3.4,5.3-6.2c5.3-24,3.4-48.9-6.2-72.4
			C333,187.6,317.1,168,297,155z"/>
		<path fill="#FFFFFF" d="M279.7,188.6c-3.8-2.9-9.6-1.4-12,2.4c-2.9,3.8-1.4,9.6,2.4,12c10.1,6.7,17.8,16.3,22.5,27.8
			c4.8,11.5,5.8,24.5,3.4,36c-1,4.8,1.9,9.6,6.7,10.6c1.9,0.5,3.8,0,5.3-0.5c2.4-1,4.8-3.4,5.3-6.2c3.4-15.4,1.9-31.2-4.3-46.5
			C302.7,209.7,292.7,197.2,279.7,188.6z"/>
	</g>
</g>
</svg>
